<svg
  className="size-5"
  xmlns="http://www.w3.org/2000/svg"
  width="22"
  height="22"
  viewBox="0 0 22 22"
  fill="none"
>
  <path
    fillRule="evenodd"
    clipRule="evenodd"
    d="M2.70186 11.0001C2.70186 6.41711 6.41711 2.70186 11.0001 2.70186C15.5831 2.70186 19.2984 6.41711 19.2984 11.0001C19.2984 15.5831 15.5831 19.2984 11.0001 19.2984C6.41711 19.2984 2.70186 15.5831 2.70186 11.0001ZM11.0001 0.901855C5.423 0.901855 0.901855 5.423 0.901855 11.0001C0.901855 16.5772 5.423 21.0984 11.0001 21.0984C16.5772 21.0984 21.0984 16.5772 21.0984 11.0001C21.0984 5.423 16.5772 0.901855 11.0001 0.901855ZM14.6197 9.73951C14.9712 9.38804 14.9712 8.81819 14.6197 8.46672C14.2683 8.11525 13.6984 8.11525 13.347 8.46672L10.1894 11.6243L8.6533 10.0883C8.30183 9.7368 7.73198 9.7368 7.38051 10.0883C7.02904 10.4397 7.02904 11.0096 7.38051 11.3611L9.55295 13.5335C9.72174 13.7023 9.95065 13.7971 10.1894 13.7971C10.428 13.7971 10.657 13.7023 10.8257 13.5335L14.6197 9.73951Z"
    fill="#12B76A"
  />
</svg>
