<svg
  width="24"
  height="24"
  viewBox="0 0 24 24"
  fill="none"
  xmlns="http://www.w3.org/2000/svg"
>
  <path
    fillRule="evenodd"
    clipRule="evenodd"
    d="M20.3499 11.9999C20.3499 16.6115 16.6115 20.3499 11.9999 20.3499C7.38832 20.3499 3.6499 16.6115 3.6499 11.9999C3.6499 7.38832 7.38833 3.6499 11.9999 3.6499C16.6115 3.6499 20.3499 7.38832 20.3499 11.9999ZM11.9999 22.1499C17.6056 22.1499 22.1499 17.6056 22.1499 11.9999C22.1499 6.39421 17.6056 1.8499 11.9999 1.8499C6.39421 1.8499 1.8499 6.39421 1.8499 11.9999C1.8499 17.6056 6.39421 22.1499 11.9999 22.1499ZM13.0008 16.4748C13.0008 15.9225 12.5531 15.4748 12.0008 15.4748L11.9998 15.4748C11.4475 15.4748 10.9998 15.9225 10.9998 16.4748C10.9998 17.0271 11.4475 17.4748 11.9998 17.4748L12.0008 17.4748C12.5531 17.4748 13.0008 17.0271 13.0008 16.4748ZM11.9998 6.62849C12.414 6.62849 12.7498 6.96428 12.7498 7.37849L12.7498 13.055C12.7498 13.4692 12.414 13.805 11.9998 13.805C11.5856 13.805 11.2498 13.4692 11.2498 13.055L11.2498 7.37849C11.2498 6.96428 11.5856 6.62849 11.9998 6.62849Z"
    fill="#F04438"
  />
</svg>
