<svg width="231" height="48" viewBox="0 0 231 48" fill="none" xmlns="http://www.w3.org/2000/svg">
<path d="M0.425781 12.6316C0.425781 5.65535 6.08113 0 13.0574 0H35.7942C42.7704 0 48.4258 5.65535 48.4258 12.6316V35.3684C48.4258 42.3446 42.7704 48 35.7942 48H13.0574C6.08113 48 0.425781 42.3446 0.425781 35.3684V12.6316Z" fill="#465FFF"/>
<g filter="url(#filter0_d_3903_56743)">
<path d="M13.0615 12.6323C13.0615 11.237 14.1926 10.106 15.5878 10.106C16.9831 10.106 18.1142 11.237 18.1142 12.6323V35.3691C18.1142 36.7644 16.9831 37.8954 15.5878 37.8954C14.1926 37.8954 13.0615 36.7644 13.0615 35.3691V12.6323Z" fill="white"/>
</g>
<g filter="url(#filter1_d_3903_56743)">
<path d="M22.5391 22.7353C22.5391 21.3401 23.6701 20.209 25.0654 20.209C26.4606 20.209 27.5917 21.3401 27.5917 22.7353V35.3669C27.5917 36.7621 26.4606 37.8932 25.0654 37.8932C23.6701 37.8932 22.5391 36.7621 22.5391 35.3669V22.7353Z" fill="white" fill-opacity="0.9" shape-rendering="crispEdges"/>
</g>
<g filter="url(#filter2_d_3903_56743)">
<path d="M32.0078 16.4189C32.0078 15.0236 33.1389 13.8926 34.5341 13.8926C35.9294 13.8926 37.0604 15.0236 37.0604 16.4189V35.3663C37.0604 36.7615 35.9294 37.8926 34.5341 37.8926C33.1389 37.8926 32.0078 36.7615 32.0078 35.3663V16.4189Z" fill="white" fill-opacity="0.7" shape-rendering="crispEdges"/>
</g>
<text x="60" y="34" font-family="system-ui, -apple-system, sans-serif" font-weight="800" font-size="28" fill="white" letter-spacing="-0.5">MeraWard</text>
<defs>
<filter id="filter0_d_3903_56743" x="12.0615" y="9.60596" width="7.05273" height="29.7896" filterUnits="userSpaceOnUse" color-interpolation-filters="sRGB">
<feFlood flood-opacity="0" result="BackgroundImageFix"/>
<feColorMatrix in="SourceAlpha" type="matrix" values="0 0 0 0 0 0 0 0 0 0 0 0 0 0 0 0 0 0 127 0" result="hardAlpha"/>
<feOffset dy="0.5"/>
<feGaussianBlur stdDeviation="0.5"/>
<feComposite in2="hardAlpha" operator="out"/>
<feColorMatrix type="matrix" values="0 0 0 0 0 0 0 0 0 0 0 0 0 0 0 0 0 0 0.12 0"/>
<feBlend mode="normal" in2="BackgroundImageFix" result="effect1_dropShadow_3903_56743"/>
<feBlend mode="normal" in="SourceGraphic" in2="effect1_dropShadow_3903_56743" result="shape"/>
</filter>
<filter id="filter1_d_3903_56743" x="21.5391" y="19.709" width="7.05273" height="19.6843" filterUnits="userSpaceOnUse" color-interpolation-filters="sRGB">
<feFlood flood-opacity="0" result="BackgroundImageFix"/>
<feColorMatrix in="SourceAlpha" type="matrix" values="0 0 0 0 0 0 0 0 0 0 0 0 0 0 0 0 0 0 127 0" result="hardAlpha"/>
<feOffset dy="0.5"/>
<feGaussianBlur stdDeviation="0.5"/>
<feComposite in2="hardAlpha" operator="out"/>
<feColorMatrix type="matrix" values="0 0 0 0 0 0 0 0 0 0 0 0 0 0 0 0 0 0 0.12 0"/>
<feBlend mode="normal" in2="BackgroundImageFix" result="effect1_dropShadow_3903_56743"/>
<feBlend mode="normal" in="SourceGraphic" in2="effect1_dropShadow_3903_56743" result="shape"/>
</filter>
<filter id="filter2_d_3903_56743" x="31.0078" y="13.3926" width="7.05273" height="26" filterUnits="userSpaceOnUse" color-interpolation-filters="sRGB">
<feFlood flood-opacity="0" result="BackgroundImageFix"/>
<feColorMatrix in="SourceAlpha" type="matrix" values="0 0 0 0 0 0 0 0 0 0 0 0 0 0 0 0 0 0 127 0" result="hardAlpha"/>
<feOffset dy="0.5"/>
<feGaussianBlur stdDeviation="0.5"/>
<feComposite in2="hardAlpha" operator="out"/>
<feColorMatrix type="matrix" values="0 0 0 0 0 0 0 0 0 0 0 0 0 0 0 0 0 0 0.12 0"/>
<feBlend mode="normal" in2="BackgroundImageFix" result="effect1_dropShadow_3903_56743"/>
<feBlend mode="normal" in="SourceGraphic" in2="effect1_dropShadow_3903_56743" result="shape"/>
</filter>
</defs>
</svg>
